<svg xmlns="http://www.w3.org/2000/svg" viewBox="0 0 120 120" width="120" height="120" role="img" aria-label="OneGoodArea">
  <title>OneGoodArea — Plotted Mark (White)</title>
  <g fill="#FAF8F4">
    <circle cx="60" cy="18" r="2.6"></circle>
    <circle cx="32" cy="32" r="2.6"></circle><circle cx="46" cy="32" r="2.6"></circle><circle cx="60" cy="32" r="2.6"></circle><circle cx="74" cy="32" r="2.6"></circle><circle cx="88" cy="32" r="2.6"></circle>
    <circle cx="32" cy="46" r="2.6"></circle><circle cx="46" cy="46" r="2.6"></circle><circle cx="60" cy="46" r="2.6"></circle><circle cx="74" cy="46" r="2.6"></circle><circle cx="88" cy="46" r="2.6"></circle>
    <circle cx="18" cy="60" r="2.6"></circle><circle cx="32" cy="60" r="2.6"></circle><circle cx="46" cy="60" r="2.6"></circle><circle cx="60" cy="60" r="5"></circle><circle cx="74" cy="60" r="2.6"></circle><circle cx="88" cy="60" r="2.6"></circle><circle cx="102" cy="60" r="2.6"></circle>
    <circle cx="32" cy="74" r="2.6"></circle><circle cx="46" cy="74" r="2.6"></circle><circle cx="60" cy="74" r="2.6"></circle><circle cx="74" cy="74" r="2.6"></circle><circle cx="88" cy="74" r="2.6"></circle>
    <circle cx="32" cy="88" r="2.6"></circle><circle cx="46" cy="88" r="2.6"></circle><circle cx="60" cy="88" r="2.6"></circle><circle cx="74" cy="88" r="2.6"></circle><circle cx="88" cy="88" r="2.6"></circle>
    <circle cx="60" cy="102" r="2.6"></circle>
  </g>
</svg>